# xmcd
#
# Track frame offsets:
#	150
#	12407
#	24641
#	36859
#	47148
#	57989
#	70615
#	82509
#	93835
#	105798
#	118304
#	129978
#	143729
#	155216
#	168196
#	177264
#	189726
#	200698
#	210865
#	222245
#	235368
#	248684
#	257674
#	270859
#
# Disc length: 3754 seconds
# Revision: 3
# Processed by: cddbd v1.5.2PL0 Copyright (c) Steve Scherf et al.
# Submitted via: dBpowerAMP V12.0
#
DISCID=410ea818
DTITLE=Little Willie John - The King Sessions 1958-1960
DYEAR=1958
DGENRE=Rhythm and Blues
TTITLE0=Talk To Me, Talk To Me
TTITLE1=Spasms
TTITLE2=You're A Sweatheart
TTITLE3=Let's Rock While The Rockin's Good
TTITLE4=Tell It Like It Is
TTITLE5=Don't Be Ashamed To Call My Name
TTITLE6=All My Love Belongs To You
TTITLE7=Why Don't You Haul Off And Love Me
TTITLE8=I'll Carry Your Love Wherever I Go
TTITLE9=No Regrets
TTITLE10=No More In Life
TTITLE11=Made For Me
TTITLE12=Leave My Kitten Alone
TTITLE13=Let Nobody Love You
TTITLE14=Right There
TTITLE15=Let Them Talk
TTITLE16=My Love-Is
TTITLE17=Loving Care
TTITLE18=I'm Shakin'
TTITLE19=A Cottage For Sale
TTITLE20=Heartbreak (It's Hurtin' Me)
TTITLE21=Do You Love Me
TTITLE22=Sleep
TTITLE23=There's A Difference
EXTD=
EXTT0=
EXTT1=
EXTT2=
EXTT3=
EXTT4=
EXTT5=
EXTT6=
EXTT7=
EXTT8=
EXTT9=
EXTT10=
EXTT11=
EXTT12=
EXTT13=
EXTT14=
EXTT15=
EXTT16=
EXTT17=
EXTT18=
EXTT19=
EXTT20=
EXTT21=
EXTT22=
EXTT23=
PLAYORDER=
